<?xml version="1.0"?>
<svg width="600" height="600" xmlns="http://www.w3.org/2000/svg" xmlns:svg="http://www.w3.org/2000/svg">
 <!-- Created with SVG-edit - https://github.com/SVG-Edit/svgedit-->

 <title>6T</title>
 <g class="layer" display="inline">
  <title>CANVAS</title>
  <rect fill="#000000" height="600" id="svg_14" stroke="#000000" stroke-dasharray="null" stroke-linecap="null" stroke-linejoin="null" stroke-opacity="null" stroke-width="0" width="600" x="0" y="0"/>
 </g>
 <g class="layer" display="inline">
  <title>6</title>
  <ellipse cx="200" cy="200" fill="#ffffff" id="svg_2" rx="200" ry="200" stroke="#000000" stroke-width="0" transform="matrix(1, 0, 0, 1, 0, 0)"/>
  <ellipse cx="200" cy="200" fill="#000000" id="svg_4" rx="100" ry="100" stroke="#000000" stroke-dasharray="null" stroke-linecap="null" stroke-linejoin="null" stroke-opacity="null" stroke-width="0" transform="matrix(1, 0, 0, 1, 0, 0)"/>
  <rect fill="#000000" height="200" id="svg_7" stroke="#000000" stroke-dasharray="null" stroke-linecap="null" stroke-linejoin="null" stroke-opacity="null" stroke-width="0" transform="matrix(1, 0, 0, 1, 0, 0)" width="400" y="200"/>
  <path d="m200,0l200,0l0,300l-200,0l0,-300z" fill="#000000" id="svg_8" stroke="#000000" stroke-dasharray="null" stroke-linecap="null" stroke-linejoin="null" stroke-opacity="null" stroke-width="0"/>
  <rect fill="#ffffff" height="200" id="svg_9" stroke="#000000" stroke-dasharray="null" stroke-linecap="null" stroke-linejoin="null" stroke-opacity="null" stroke-width="0" width="100" x="0" y="200"/>
  <rect fill="#ffffff" height="100" id="svg_10" stroke="#000000" stroke-dasharray="null" stroke-linecap="null" stroke-linejoin="null" stroke-opacity="null" stroke-width="0" width="200" x="200" y="0"/>
 </g>
 <g class="layer" display="inline">
  <title>T</title>
  <path d="m350,0l-150,100l400,0l0,-100l-250,0z" fill="#ffffff" id="svg_11" stroke="#000000" stroke-linecap="null" stroke-linejoin="null" stroke-opacity="null" stroke-width="0"/>
  <rect fill="#ffffff" height="550" id="svg_12" stroke="#000000" stroke-dasharray="null" stroke-linecap="null" stroke-linejoin="null" stroke-opacity="null" stroke-width="0" width="100" x="350" y="0"/>
  <ellipse cx="400" cy="550" fill="#ffffff" id="svg_13" rx="50" ry="50" stroke="#000000" stroke-dasharray="null" stroke-linecap="null" stroke-linejoin="null" stroke-opacity="null" stroke-width="0"/>
 </g>
 <g class="layer" display="inline">
  <title>CAMROLL</title>
  <ellipse cx="200" cy="400" fill="#000000" id="svg_3" rx="200" ry="200" stroke="#000000" stroke-width="0"/>
  <ellipse cx="200" cy="275" fill="#ffffff" id="svg_6" rx="50" ry="50" stroke="#000000" stroke-width="0" transform="matrix(1, 0, 0, 1, 0, 0)"/>
  <ellipse cx="200" cy="525" fill="#ffffff" id="svg_15" rx="50" ry="50" stroke="#000000" stroke-width="0" transform="matrix(1, 0, 0, 1, 0, 0)"/>
  <ellipse cx="75" cy="400" fill="#ffffff" id="svg_16" rx="50" ry="50" stroke="#000000" stroke-width="0" transform="matrix(1, 0, 0, 1, 0, 0)"/>
  <ellipse cx="325" cy="400" fill="#ffffff" id="svg_17" rx="50" ry="50" stroke="#000000" stroke-width="0" transform="matrix(1, 0, 0, 1, 0, 0)"/>
  <ellipse cx="200" cy="400" fill="#ffffff" id="svg_18" rx="25" ry="25" stroke="#000000" stroke-width="0" transform="matrix(1, 0, 0, 1, 0, 0)"/>
 </g>
 <g class="layer" display="inline">
  <title>APE</title>
  <path d="m475,250l0,-125l100,0l0,125l-25,0l0,-50l-50,0l0,50l-25,0z" fill="#ffffff" id="svg_20" stroke="#000000" stroke-dasharray="null" stroke-linecap="null" stroke-linejoin="null" stroke-opacity="null" stroke-width="0" transform="matrix(1, 0, 0, 1, 0, 0)"/>
  <path d="m475,400l0,-125l100,0l0,75l-75,0l0,50l-25,0z" fill="#ffffff" id="svg_21" stroke="#000000" stroke-dasharray="null" stroke-linecap="null" stroke-linejoin="null" stroke-opacity="null" stroke-width="0"/>
  <path d="m575,550l-100,0l0,-125l100,0l0,25l-75,0l0,25l75,0l0,25l-75,0l0,25l75,0l0,25z" fill="#ffffff" id="svg_22" stroke="#000000" stroke-dasharray="null" stroke-linecap="null" stroke-linejoin="null" stroke-opacity="null" stroke-width="0" transform="matrix(1, 0, 0, 1, 0, 0)"/>
  <rect fill="#000000" height="25" id="svg_23" stroke="#000000" stroke-dasharray="null" stroke-linecap="null" stroke-linejoin="null" stroke-opacity="null" stroke-width="0" width="50" x="500" y="150"/>
  <rect fill="#000000" height="25" id="svg_24" stroke="#000000" stroke-dasharray="null" stroke-linecap="null" stroke-linejoin="null" stroke-opacity="null" stroke-width="0" width="50" x="500" y="300"/>
 </g>
</svg>